Coordinates
version=1
nRows=33
nColumns=33
inDegrees=yes

Units are S.I. units (second, meters, Newtons, ...)
Angles are in degrees.

endheader
time	ground_thorax_rot_x	ground_thorax_rot_y	ground_thorax_rot_z	ground_thorax_tx	ground_thorax_ty	ground_thorax_tz	clav_prot_r	clav_elev_r	scapula_abduction_r	scapula_elevation_r	scapula_upward_rot_r	scapula_winging_r	shoulder_elv_r	plane_of_elev_r	axial_rot_r	elbow_flexion_r	pro_sup_r	wrist_flex_r	wrist_dev_r	clav_prot_l	clav_elev_l	scapula_abduction_l	scapula_elevation_l	scapula_upward_rot_l	scapula_winging_l	shoulder_elv_l	plane_of_elev_l	axial_rot_l	elbow_flexion_l	pro_sup_l	wrist_flex_l	wrist_dev_l	
10.6500	-33.182262	-23.949625	32.910401	-70.291300	816.825303	-45.907711	27.504521	-45.000000	38.698702	-45.000000	-45.000000	-2625.706581	-4603.606363	20.426605	-143.589632	1799.720174	-194.540727	12.527866	15.408088	-0.476046	32.176902	-30.769678	-45.000000	-45.000000	-5673.564103	-2082.591497	26.828675	48.760884	-10.079034	-319.868367	14.219911	-17.486609	
10.6600	-33.268532	-23.835697	32.536354	-72.165201	818.757943	-46.058630	27.464871	-45.000000	38.716404	-45.000000	-45.000000	-2625.798011	-4603.544435	20.456696	-143.793382	1799.679481	-195.668908	12.422337	15.458178	-0.478133	32.226241	-30.866196	-45.000000	-45.000000	-5673.479221	-2082.505527	26.877749	49.082140	-10.100203	-320.399788	14.342124	-17.477857	
10.6700	-33.356127	-23.723059	32.159604	-73.980058	820.675315	-46.212126	27.425549	-45.000000	38.736785	-45.000000	-45.000000	-2625.888158	-4603.492936	20.490987	-143.978498	1799.637725	-196.771015	12.323516	15.503851	-0.482077	32.272548	-30.964672	-45.000000	-45.000000	-5673.388312	-2082.427072	26.933765	49.411403	-10.123172	-320.956046	14.469074	-17.473174	
10.6800	-33.437238	-23.613243	31.792372	-75.729685	822.575822	-46.367066	27.381523	-45.000000	38.761979	-45.000000	-45.000000	-2625.978881	-4603.442323	20.521107	-144.152170	1799.587217	-197.833823	12.235851	15.543300	-0.485160	32.318594	-31.060516	-45.000000	-45.000000	-5673.303417	-2082.353546	26.989477	49.742921	-10.148080	-321.522450	14.592821	-17.468683	
10.6900	-33.515072	-23.509203	31.435985	-77.409512	824.458146	-46.521745	27.338545	-45.000000	38.783733	-45.000000	-45.000000	-2626.065744	-4603.395876	20.551949	-144.319319	1799.534703	-198.848973	12.159645	15.573175	-0.488892	32.364072	-31.153030	-45.000000	-45.000000	-5673.218807	-2082.282890	27.046244	50.069809	-10.172057	-322.084496	14.712619	-17.468209	
10.7000	-33.593444	-23.406685	31.084413	-79.016017	826.320209	-46.673949	27.294539	-45.000000	38.796267	-45.000000	-45.000000	-2626.148434	-4603.355081	20.591112	-144.485943	1799.483250	-199.802374	12.097160	15.593118	-0.491552	32.406518	-31.247782	-45.000000	-45.000000	-5673.127937	-2082.217465	27.109711	50.396487	-10.196316	-322.624954	14.830767	-17.476577	
10.7100	-33.676503	-23.304807	30.735696	-80.547288	828.159590	-46.821186	27.250806	-45.000000	38.795321	-45.000000	-45.000000	-2626.226525	-4603.325940	20.643619	-144.655125	1799.437700	-200.680277	12.049918	15.603867	-0.494166	32.443995	-31.347396	-45.000000	-45.000000	-5673.023281	-2082.156902	27.183809	50.723777	-10.217982	-323.127775	14.948600	-17.499819	
10.7200	-33.752976	-23.206788	30.399757	-82.002311	829.972887	-46.960806	27.203822	-45.000000	38.795910	-45.000000	-45.000000	-2626.303008	-4603.298695	20.699509	-144.828388	1799.389193	-201.478054	12.017953	15.608377	-0.497432	32.478202	-31.444953	-45.000000	-45.000000	-5672.921357	-2082.100034	27.257947	51.044493	-10.236671	-323.582014	15.060783	-17.535682	
10.7300	-33.823299	-23.114137	30.079950	-83.381436	831.756609	-47.090204	27.155498	-45.000000	38.798650	-45.000000	-45.000000	-2626.377095	-4603.275341	20.755262	-145.005671	1799.337274	-202.196855	12.003077	15.606996	-0.501367	32.513044	-31.539642	-45.000000	-45.000000	-5672.821699	-2082.048474	27.330204	51.349377	-10.248280	-323.979826	15.163310	-17.585259	
10.7400	-33.886449	-23.026308	29.771809	-84.685356	833.506320	-47.206827	27.103750	-45.000000	38.811508	-45.000000	-45.000000	-2626.448204	-4603.256326	20.812568	-145.187553	1799.282559	-202.839104	12.003493	15.601673	-0.506981	32.546147	-31.632060	-45.000000	-45.000000	-5672.725541	-2082.004980	27.399434	51.636478	-10.253394	-324.315749	15.256700	-17.650853	
10.7500	-33.943798	-22.943246	29.479028	-85.915363	835.217289	-47.308317	27.048008	-45.000000	38.829911	-45.000000	-45.000000	-2626.516797	-4603.241395	20.869316	-145.378463	1799.224580	-203.406419	12.020443	15.592875	-0.513150	32.579536	-31.722024	-45.000000	-45.000000	-5672.633781	-2081.968479	27.465011	51.902987	-10.250607	-324.585689	15.336983	-17.731999	
10.7600	-33.992708	-22.866448	29.203235	-87.072699	836.883907	-47.392563	26.988960	-45.000000	38.857199	-45.000000	-45.000000	-2626.582166	-4603.227846	20.925899	-145.580298	1799.164998	-203.902903	12.051160	15.580739	-0.521779	32.611524	-31.806749	-45.000000	-45.000000	-5672.549899	-2081.938186	27.524660	52.145042	-10.241768	-324.789985	15.404055	-17.828718	
10.7700	-34.034574	-22.795819	28.949050	-88.158803	838.500254	-47.457871	26.927122	-45.000000	38.885189	-45.000000	-45.000000	-2626.644804	-4603.214412	20.981439	-145.796411	1799.103811	-204.332269	12.096112	15.565301	-0.531071	32.643653	-31.886330	-45.000000	-45.000000	-5672.473431	-2081.913336	27.579495	52.360454	-10.227983	-324.930969	15.455614	-17.939892	
10.7800	-34.067723	-22.732520	28.716340	-89.174633	840.059361	-47.502991	26.864440	-45.000000	38.914804	-45.000000	-45.000000	-2626.703786	-4603.199364	21.038952	-146.026295	1799.044159	-204.700038	12.151591	15.546227	-0.543473	32.672535	-31.958432	-45.000000	-45.000000	-5672.404388	-2081.894121	27.629465	52.548029	-10.213274	-325.014628	15.495205	-18.066136	
10.7900	-34.088803	-22.681685	28.515814	-90.120929	841.553690	-47.527165	26.799737	-45.000000	38.944792	-45.000000	-45.000000	-2626.759656	-4603.176422	21.091142	-146.268569	1798.982170	-205.013447	12.215466	15.526169	-0.556686	32.701179	-32.018813	-45.000000	-45.000000	-5672.352186	-2081.877010	27.669243	52.701917	-10.197136	-325.049326	15.516322	-18.201060	
10.8000	-34.100344	-22.642042	28.345632	-90.998287	842.975332	-47.530010	26.737021	-45.000000	38.972043	-45.000000	-45.000000	-2626.812504	-4603.147622	21.142655	-146.517526	1798.919796	-205.281554	12.285815	15.504170	-0.573836	32.727860	-32.067222	-45.000000	-45.000000	-5672.310087	-2081.862461	27.701887	52.822517	-10.181003	-325.044015	15.525379	-18.347404	
10.8100	-34.103910	-22.614302	28.208163	-91.807321	844.316286	-47.511390	26.673878	-45.000000	38.995428	-45.000000	-45.000000	-2626.862036	-4603.114295	21.190173	-146.771194	1798.855390	-205.511337	12.360356	15.484969	-0.590673	32.753367	-32.104013	-45.000000	-45.000000	-5672.279306	-2081.849443	27.726210	52.911238	-10.163392	-325.006177	15.518519	-18.501758	
10.8200	-34.105142	-22.592654	28.094275	-92.548817	845.568743	-47.471277	26.614641	-45.000000	39.012403	-45.000000	-45.000000	-2626.911404	-4603.084977	21.242204	-147.024216	1798.790229	-205.708422	12.438450	15.467100	-0.613385	32.773886	-32.132149	-45.000000	-45.000000	-5672.247625	-2081.841709	27.749950	52.975282	-10.146056	-324.941446	15.508172	-18.671348	
10.8300	-34.101555	-22.584993	28.011753	-93.223850	846.725373	-47.409796	26.553527	-45.000000	39.027568	-45.000000	-45.000000	-2626.956175	-4603.057596	21.286785	-147.277147	1798.722193	-205.876061	12.515633	15.458008	-0.634036	32.791506	-32.146551	-45.000000	-45.000000	-5672.227755	-2081.834773	27.762551	53.011677	-10.125188	-324.854094	15.480523	-18.844944	
10.8400	-34.102101	-22.583380	27.946814	-93.834056	847.779777	-47.327471	26.499213	-45.000000	39.033982	-45.000000	-45.000000	-2627.002906	-4603.042650	21.339201	-147.519790	1798.654575	-206.016673	12.594457	15.449391	-0.665000	32.802767	-32.153518	-45.000000	-45.000000	-5672.203326	-2081.834587	27.778244	53.028853	-10.104227	-324.745893	15.456321	-19.035882	
10.8500	-34.100946	-22.600344	27.909060	-94.381417	848.726323	-47.225546	26.443967	-45.000000	39.037690	-45.000000	-45.000000	-2627.039274	-4603.033419	21.384124	-147.750817	1798.591593	-206.129027	12.667801	15.449502	-0.692795	32.810499	-32.143370	-45.000000	-45.000000	-5672.192334	-2081.834436	27.779502	53.019910	-10.080247	-324.615799	15.413002	-19.224542	
10.8600	-34.103610	-22.625847	27.883064	-94.868273	849.560129	-47.106289	26.392814	-45.000000	39.040312	-45.000000	-45.000000	-2627.071451	-4603.037762	21.430640	-147.961490	1798.533387	-206.212640	12.744450	15.450722	-0.727598	32.814126	-32.124998	-45.000000	-45.000000	-5672.180290	-2081.844163	27.779464	52.993593	-10.059818	-324.463810	15.366937	-19.427222	
10.8700	-34.101683	-22.674132	27.884772	-95.297014	850.276751	-46.973121	26.337097	-45.000000	39.043652	-45.000000	-45.000000	-2627.086684	-4603.040977	21.460790	-148.155965	1798.479987	-206.263654	12.816526	15.463573	-0.751606	32.816626	-32.087673	-45.000000	-45.000000	-5672.190897	-2081.853582	27.757718	52.940312	-10.037181	-324.288370	15.288877	-19.616810	
10.8800	-34.103334	-22.727353	27.897442	-95.670112	850.872300	-46.830363	26.286958	-45.000000	39.044851	-45.000000	-45.000000	-2627.100478	-4603.054612	21.491965	-148.324877	1798.429538	-206.280400	12.899042	15.475505	-0.782337	32.816338	-32.045647	-45.000000	-45.000000	-5672.200278	-2081.873067	27.739125	52.873223	-10.018298	-324.090075	15.206407	-19.820782	
10.8900	-34.098216	-22.796094	27.937353	-95.989971	851.343641	-46.682750	26.233988	-45.000000	39.047603	-45.000000	-45.000000	-2627.103998	-4603.063695	21.505206	-148.474991	1798.378704	-206.258174	12.985964	15.497640	-0.802902	32.813800	-31.988129	-45.000000	-45.000000	-5672.230383	-2081.893505	27.704033	52.783255	-9.996851	-323.868572	15.091646	-20.013075	
10.9000	-34.093841	-22.859643	27.985021	-96.258957	851.688863	-46.534871	26.188585	-45.000000	39.049434	-45.000000	-45.000000	-2627.116074	-4603.080414	21.519420	-148.600111	1798.327482	-206.196846	13.096584	15.515266	-0.832395	32.809159	-31.931395	-45.000000	-45.000000	-5672.255700	-2081.929782	27.681787	52.685499	-9.981218	-323.627460	14.977114	-20.226063	
10.9100	-34.083700	-22.933521	28.056700	-96.479369	851.908061	-46.390701	26.141364	-45.000000	39.053290	-45.000000	-45.000000	-2627.123149	-4603.092618	21.514181	-148.706167	1798.272646	-206.090901	13.215878	15.542385	-0.852104	32.800601	-31.864743	-45.000000	-45.000000	-5672.299722	-2081.967165	27.646343	52.568422	-9.959127	-323.369307	14.833707	-20.424513	
10.9200	-34.080271	-23.000710	28.129381	-96.653683	852.003866	-46.253082	26.108001	-45.000000	39.050655	-45.000000	-45.000000	-2627.140950	-4603.119773	21.520943	-148.780935	1798.226254	-205.941722	13.361489	15.556537	-0.887100	32.789562	-31.804013	-45.000000	-45.000000	-5672.329188	-2082.015262	27.630519	52.445309	-9.940222	-323.096378	14.704460	-20.643700	
10.9300	-34.073558	-23.080968	28.218481	-96.784393	851.981872	-46.123762	26.076364	-45.000000	39.046866	-45.000000	-45.000000	-2627.149650	-4603.147000	21.515255	-148.833486	1798.185006	-205.745124	13.514933	15.573732	-0.913227	32.774434	-31.734868	-45.000000	-45.000000	-5672.369703	-2082.059392	27.600430	52.302318	-9.916616	-322.810687	14.554819	-20.843255	
10.9400	-34.068767	-23.157174	28.306105	-96.874035	851.850647	-46.003500	26.056754	-45.000000	39.034665	-45.000000	-45.000000	-2627.164075	-4603.183357	21.522222	-148.862579	1798.156256	-205.508659	13.696288	15.574112	-0.949460	32.760506	-31.666896	-45.000000	-45.000000	-5672.397693	-2082.111420	27.584896	52.153061	-9.896585	-322.518202	14.418755	-21.055168	
10.9500	-34.054394	-23.245705	28.411077	-96.925070	851.621497	-45.892357	26.037065	-45.000000	39.021298	-45.000000	-45.000000	-2627.166080	-4603.209643	21.516162	-148.881643	1798.129222	-205.231564	13.877567	15.578207	-0.969865	32.743715	-31.592012	-45.000000	-45.000000	-5672.441218	-2082.156686	27.553017	51.989131	-9.867343	-322.225413	14.261537	-21.236656	
10.9600	-34.041718	-23.324494	28.508927	-96.940276	851.308083	-45.789616	26.032119	-45.000000	38.996086	-45.000000	-45.000000	-2627.179858	-4603.243385	21.533469	-148.887084	1798.114945	-204.927766	14.083040	15.558433	-1.003624	32.728802	-31.520200	-45.000000	-45.000000	-5672.465913	-2082.210678	27.543775	51.830638	-9.834374	-321.939016	14.129952	-21.433615	
10.9700	-34.020784	-23.407421	28.615430	-96.922613	850.925372	-45.694080	26.029719	-45.000000	38.970631	-45.000000	-45.000000	-2627.188408	-4603.270276	21.540280	-148.892394	1798.097295	-204.594553	14.277340	15.541694	-1.021444	32.711529	-31.448163	-45.000000	-45.000000	-5672.495980	-2082.262264	27.525554	51.671261	-9.791426	-321.661444	13.988794	-21.602401	
